<svg xmlns="http://www.w3.org/2000/svg" width="30" height="30" viewBox="0 0 30 30">
  <g id="Group_8127" data-name="Group 8127" transform="translate(-1523 -1001)">
    <rect id="Rectangle_31" data-name="Rectangle 31" width="30" height="30" transform="translate(1523 1001)" fill="none"/>
    <g id="dashboard" transform="translate(1530 1008)">
      <path id="Path_93404" data-name="Path 93404" d="M5.781,0H1.094A1.1,1.1,0,0,0,0,1.094V3.906A1.1,1.1,0,0,0,1.094,5H5.781A1.1,1.1,0,0,0,6.875,3.906V1.094A1.1,1.1,0,0,0,5.781,0Zm0,0" fill="#c1c5cb"/>
      <path id="Path_93405" data-name="Path 93405" d="M5.781,213.332H1.094A1.1,1.1,0,0,0,0,214.426v6.563a1.1,1.1,0,0,0,1.094,1.094H5.781a1.1,1.1,0,0,0,1.094-1.094v-6.562A1.1,1.1,0,0,0,5.781,213.332Zm0,0" transform="translate(0 -207.082)" fill="#c1c5cb"/>
      <path id="Path_93406" data-name="Path 93406" d="M283.113,341.332h-4.687a1.1,1.1,0,0,0-1.094,1.094v2.813a1.1,1.1,0,0,0,1.094,1.094h4.688a1.1,1.1,0,0,0,1.094-1.094v-2.812A1.1,1.1,0,0,0,283.113,341.332Zm0,0" transform="translate(-269.207 -331.332)" fill="#c1c5cb"/>
      <path id="Path_93407" data-name="Path 93407" d="M283.113,0h-4.687a1.1,1.1,0,0,0-1.094,1.094V7.656a1.1,1.1,0,0,0,1.094,1.094h4.688a1.1,1.1,0,0,0,1.094-1.094V1.094A1.1,1.1,0,0,0,283.113,0Zm0,0" transform="translate(-269.207)" fill="#c1c5cb"/>
    </g>
  </g>
</svg>
