<svg xmlns="http://www.w3.org/2000/svg" width="24" height="24" viewBox="0 0 24 24">
  <g id="Group_8128" data-name="Group 8128" transform="translate(6384 1528)">
    <rect id="Rectangle_49246" data-name="Rectangle 49246" width="24" height="24" transform="translate(-6384 -1528)" fill="#f2f4f7" opacity="0"/>
    <path id="cloud-computing" d="M12.22,2.742A5.2,5.2,0,0,0,2.536,4.229a3.106,3.106,0,0,0,.569,6.16H7.531V6.457l-.993.993a.469.469,0,0,1-.663-.663L7.668,4.994a.469.469,0,0,1,.663,0l1.793,1.793a.469.469,0,1,1-.663.663l-.993-.993v3.932h3.708a3.824,3.824,0,0,0,.044-7.647Zm0,0" transform="translate(-6379.999 -1521)" fill="#c1c5cb" stroke="rgba(0,0,0,0)" stroke-width="1"/>
  </g>
</svg>
