<svg xmlns="http://www.w3.org/2000/svg" width="24" height="24" viewBox="0 0 24 24">
  <g id="Icon" transform="translate(-1773 -1003)">
    <rect id="Rectangle_37" data-name="Rectangle 37" width="24" height="24" transform="translate(1773 1003)" fill="none"/>
    <g id="owner_1_" data-name="owner (1)" transform="translate(1779 1007)">
      <path id="Path_93412" data-name="Path 93412" d="M10.27,249.432l-2.864-1.213a.22.22,0,0,0-.181,0,.171.171,0,0,0-.1.129l-1.677,6.787-1.7-6.787a.258.258,0,0,0-.1-.129.218.218,0,0,0-.181,0L.619,249.3a.9.9,0,0,0-.619.826v5.858a.222.222,0,0,0,.206.206h10.4a.2.2,0,0,0,.206-.206v-5.729a.813.813,0,0,0-.542-.826Zm0,0" transform="translate(0 -240.194)" fill="#c1c5cb"/>
      <path id="Path_93413" data-name="Path 93413" d="M140.413,241.652a.548.548,0,0,0-.077-.671.531.531,0,0,0-.439-.181h-.774a.673.673,0,0,0-.439.181.582.582,0,0,0-.077.671l.206.31a.883.883,0,0,1,.129.568l-.129,1.342.387,1.058a.335.335,0,0,0,.619,0l.387-1.058-.155-1.316a.847.847,0,0,1,.129-.568Zm0,0" transform="translate(-134.065 -233.033)" fill="#c1c5cb"/>
      <path id="Path_93414" data-name="Path 93414" d="M75.9,7.174a3.106,3.106,0,0,0,3.1-3.1V3.1a3.1,3.1,0,1,0-6.194,0v.981A3.106,3.106,0,0,0,75.9,7.174Zm0,0" transform="translate(-70.453 0)" fill="#c1c5cb"/>
    </g>
  </g>
</svg>
