<svg xmlns="http://www.w3.org/2000/svg" width="14.607" height="15" viewBox="0 0 14.607 15">
  <path id="Path_93425" data-name="Path 93425" d="M21.064,9.144,19.685,8.066a5.428,5.428,0,0,0,.032-.566,5.264,5.264,0,0,0-.032-.566l1.38-1.079a.676.676,0,0,0,.163-.861L19.795,2.513a.665.665,0,0,0-.829-.3l-1.627.653a5.578,5.578,0,0,0-.977-.567L16.114.575A.664.664,0,0,0,15.452,0H12.577a.662.662,0,0,0-.661.57L11.667,2.3a5.75,5.75,0,0,0-.975.567L9.061,2.214a.678.678,0,0,0-.823.293L6.8,4.991a.672.672,0,0,0,.163.866L8.344,6.934a4.945,4.945,0,0,0,0,1.132L6.964,9.145a.676.676,0,0,0-.163.861l1.434,2.481a.663.663,0,0,0,.829.3l1.627-.653a5.627,5.627,0,0,0,.976.567l.247,1.725a.663.663,0,0,0,.662.576h2.875a.663.663,0,0,0,.662-.57l.248-1.731a5.777,5.777,0,0,0,.975-.568l1.631.655a.672.672,0,0,0,.245.046.66.66,0,0,0,.578-.339L21.232,10A.675.675,0,0,0,21.064,9.144ZM14.014,10a2.5,2.5,0,1,1,2.5-2.5A2.5,2.5,0,0,1,14.014,10Z" transform="translate(-6.71)" fill="#c1c5cb"/>
</svg>
