<svg xmlns="http://www.w3.org/2000/svg" width="24" height="24" viewBox="0 0 24 24">
  <g id="Request_Ticket" data-name="Request Ticket" transform="translate(-1693 -1003)">
    <rect id="Rectangle_35" data-name="Rectangle 35" width="24" height="24" transform="translate(1693 1003)" fill="none"/>
    <g id="black-shop-tag" transform="translate(1696.699 1007)">
      <path id="Path_93424" data-name="Path 93424" d="M10.511,14.634a1.4,1.4,0,0,1-1.885,0L1.284,8.179A2.813,2.813,0,0,1,.349,6.607C.255,5.183.321,2.455.368,1.009A1.061,1.061,0,0,1,1.419.028C3.39-.015,7.565-.061,7.953.3l8.085,6.858c.519.487.048,1.719-.475,2.208ZM4.077,2.123a1.181,1.181,0,0,0-1.593,0,1.009,1.009,0,0,0,0,1.492,1.181,1.181,0,0,0,1.593,0A1.009,1.009,0,0,0,4.077,2.123Z" transform="translate(0 1)" fill="#c1c5cb"/>
    </g>
  </g>
</svg>
