<svg xmlns="http://www.w3.org/2000/svg" width="24" height="24" viewBox="0 0 24 24">
  <g id="Leads" transform="translate(-1609 -1003)">
    <rect id="Rectangle_33" data-name="Rectangle 33" width="24" height="24" transform="translate(1609 1003)" fill="none"/>
    <g id="building" transform="translate(1613 976)">
      <g id="Group_95991" data-name="Group 95991" transform="translate(3.635 35.439)">
        <g id="Group_95987" data-name="Group 95987" transform="translate(0 0)">
          <path id="Path_93415" data-name="Path 93415" d="M104.884,131.227h2.477v1.04h-2.477Z" transform="translate(-104.884 -131.227)" fill="#c1c5cb"/>
        </g>
        <g id="Group_95988" data-name="Group 95988" transform="translate(0 2.365)">
          <path id="Path_93416" data-name="Path 93416" d="M104.884,199.484h2.477v1.04h-2.477Z" transform="translate(-104.884 -199.484)" fill="#c1c5cb"/>
        </g>
        <g id="Group_95989" data-name="Group 95989" transform="translate(0 4.731)">
          <path id="Path_93417" data-name="Path 93417" d="M104.884,267.74h2.477v1.04h-2.477Z" transform="translate(-104.884 -267.74)" fill="#c1c5cb"/>
        </g>
        <g id="Group_95990" data-name="Group 95990" transform="translate(0 7.096)">
          <path id="Path_93418" data-name="Path 93418" d="M104.884,336h2.477v1.04h-2.477Z" transform="translate(-104.884 -335.997)" fill="#c1c5cb"/>
        </g>
      </g>
      <g id="Group_95997" data-name="Group 95997" transform="translate(0 32)">
        <path id="Path_93419" data-name="Path 93419" d="M8.645,44.96v-8.5l5.432-.006v5.734h1.04V35.933a.525.525,0,0,0-.52-.52l-6.471.008a.52.52,0,0,0-.519.52V44.96H2.142V34.668L7.605,33.2v1.181h1.04V32.52a.525.525,0,0,0-.655-.5l-6.5,1.749a.52.52,0,0,0-.385.5V44.96H0V46H16.218V44.96Z" transform="translate(0 -32)" fill="#c1c5cb"/>
        <g id="Group_95992" data-name="Group 95992" transform="translate(14.076 11.124)">
          <path id="Path_93420" data-name="Path 93420" d="M406.2,353.008h1.04v.969H406.2Z" transform="translate(-406.2 -353.008)" fill="#c1c5cb"/>
        </g>
        <g id="Group_95996" data-name="Group 95996" transform="translate(10.106 5.804)">
          <g id="Group_95993" data-name="Group 95993">
            <path id="Path_93421" data-name="Path 93421" d="M291.624,199.484H294.1v1.04h-2.477Z" transform="translate(-291.624 -199.484)" fill="#c1c5cb"/>
          </g>
          <g id="Group_95994" data-name="Group 95994" transform="translate(0 2.365)">
            <path id="Path_93422" data-name="Path 93422" d="M291.624,267.74H294.1v1.04h-2.477Z" transform="translate(-291.624 -267.74)" fill="#c1c5cb"/>
          </g>
          <g id="Group_95995" data-name="Group 95995" transform="translate(0 4.731)">
            <path id="Path_93423" data-name="Path 93423" d="M291.624,336H294.1v1.04h-2.477Z" transform="translate(-291.624 -335.997)" fill="#c1c5cb"/>
          </g>
        </g>
      </g>
    </g>
  </g>
</svg>
