<svg xmlns="http://www.w3.org/2000/svg" width="11.4" height="12" viewBox="0 0 11.4 12">
  <path id="icons8-trash_2_" data-name="icons8-trash (2)" d="M10.7,4A2.107,2.107,0,0,0,8.624,5.8H6.571a.4.4,0,0,0-.144,0H5.45a.45.45,0,1,0,0,.9h.642l.755,7.809A1.656,1.656,0,0,0,8.489,16H12.91a1.656,1.656,0,0,0,1.642-1.491L15.308,6.7h.642a.45.45,0,1,0,0-.9h-.977a.45.45,0,0,0-.144,0H12.776A2.107,2.107,0,0,0,10.7,4Zm0,.9a1.189,1.189,0,0,1,1.158.9H9.542A1.189,1.189,0,0,1,10.7,4.9ZM7,6.7H14.4l-.748,7.722a.744.744,0,0,1-.746.678H8.489a.745.745,0,0,1-.746-.678ZM9.643,8.194A.45.45,0,0,0,9.2,8.65v4.5a.45.45,0,1,0,.9,0V8.65a.45.45,0,0,0-.457-.456Zm2.1,0a.45.45,0,0,0-.443.456v4.5a.45.45,0,1,0,.9,0V8.65a.45.45,0,0,0-.457-.456Z" transform="translate(-5 -4)" fill="#ff4b4b"/>
</svg>
